<mxfile host="app.diagrams.net" agent="Mozilla/5.0 (Windows NT 10.0; Win64; x64) AppleWebKit/537.36 (KHTML, like Gecko) Chrome/141.0.0.0 Safari/537.36" version="28.2.5">
  <diagram name="Page-1" id="hFZVzh7CDddOMKe8RRAo">
    <mxGraphModel dx="1426" dy="2943" grid="1" gridSize="10" guides="1" tooltips="1" connect="1" arrows="1" fold="1" page="1" pageScale="1" pageWidth="850" pageHeight="1100" math="0" shadow="0">
      <root>
        <mxCell id="0" />
        <mxCell id="1" parent="0" />
        <mxCell id="hOCo4uu3B2jNtMkzMyYe-1" value="Chris Thomas&lt;div&gt;Placeholder/Init load&lt;/div&gt;&lt;div&gt;Desktop Size&lt;/div&gt;&lt;div&gt;Wireframe #1&lt;/div&gt;" style="text;html=1;align=left;verticalAlign=middle;whiteSpace=wrap;rounded=0;fontSize=9;" vertex="1" parent="1">
          <mxGeometry x="10" y="-2180" width="90" height="50" as="geometry" />
        </mxCell>
        <mxCell id="hOCo4uu3B2jNtMkzMyYe-2" value="" style="rounded=1;whiteSpace=wrap;html=1;" vertex="1" parent="1">
          <mxGeometry x="120" y="-2170" width="640" height="60" as="geometry" />
        </mxCell>
        <mxCell id="hOCo4uu3B2jNtMkzMyYe-3" value="Vocational" style="text;html=1;align=center;verticalAlign=middle;whiteSpace=wrap;rounded=0;fontSize=14;fontStyle=0" vertex="1" parent="1">
          <mxGeometry x="520" y="-2155" width="80" height="30" as="geometry" />
        </mxCell>
        <mxCell id="hOCo4uu3B2jNtMkzMyYe-4" value="Housing" style="text;html=1;align=center;verticalAlign=middle;whiteSpace=wrap;rounded=0;fontSize=14;fontStyle=4" vertex="1" parent="1">
          <mxGeometry x="395" y="-2155" width="90" height="30" as="geometry" />
        </mxCell>
        <mxCell id="hOCo4uu3B2jNtMkzMyYe-5" value="Living Loved Aggregator" style="text;html=1;align=center;verticalAlign=middle;whiteSpace=wrap;rounded=0;fontSize=16;" vertex="1" parent="1">
          <mxGeometry x="140" y="-2155" width="200" height="30" as="geometry" />
        </mxCell>
        <mxCell id="hOCo4uu3B2jNtMkzMyYe-6" value="Contact" style="text;html=1;align=center;verticalAlign=middle;whiteSpace=wrap;rounded=0;fontSize=14;" vertex="1" parent="1">
          <mxGeometry x="640" y="-2155" width="90" height="30" as="geometry" />
        </mxCell>
        <mxCell id="hOCo4uu3B2jNtMkzMyYe-7" value="Your Results" style="text;html=1;align=center;verticalAlign=middle;whiteSpace=wrap;rounded=0;fontSize=16;" vertex="1" parent="1">
          <mxGeometry x="150" y="-2040" width="120" height="60" as="geometry" />
        </mxCell>
        <mxCell id="hOCo4uu3B2jNtMkzMyYe-8" value="" style="rounded=1;whiteSpace=wrap;html=1;" vertex="1" parent="1">
          <mxGeometry x="160" y="-1980" width="560" height="60" as="geometry" />
        </mxCell>
        <mxCell id="hOCo4uu3B2jNtMkzMyYe-9" value="" style="endArrow=none;html=1;rounded=0;entryX=0.391;entryY=0.05;entryDx=0;entryDy=0;entryPerimeter=0;exitX=0.391;exitY=0.933;exitDx=0;exitDy=0;exitPerimeter=0;" edge="1" parent="1" source="hOCo4uu3B2jNtMkzMyYe-2" target="hOCo4uu3B2jNtMkzMyYe-2">
          <mxGeometry width="50" height="50" relative="1" as="geometry">
            <mxPoint x="350" y="-2115" as="sourcePoint" />
            <mxPoint x="400" y="-2165" as="targetPoint" />
            <Array as="points">
              <mxPoint x="370" y="-2135" />
            </Array>
          </mxGeometry>
        </mxCell>
        <mxCell id="hOCo4uu3B2jNtMkzMyYe-10" value="" style="endArrow=none;html=1;rounded=0;entryX=0.391;entryY=0.05;entryDx=0;entryDy=0;entryPerimeter=0;exitX=0.391;exitY=0.933;exitDx=0;exitDy=0;exitPerimeter=0;" edge="1" parent="1">
          <mxGeometry width="50" height="50" relative="1" as="geometry">
            <mxPoint x="500" y="-2113.5" as="sourcePoint" />
            <mxPoint x="500" y="-2166.5" as="targetPoint" />
            <Array as="points">
              <mxPoint x="500" y="-2134.5" />
            </Array>
          </mxGeometry>
        </mxCell>
        <mxCell id="hOCo4uu3B2jNtMkzMyYe-11" value="" style="endArrow=none;html=1;rounded=0;exitX=0.391;exitY=0.933;exitDx=0;exitDy=0;exitPerimeter=0;" edge="1" parent="1">
          <mxGeometry width="50" height="50" relative="1" as="geometry">
            <mxPoint x="630" y="-2113.5" as="sourcePoint" />
            <mxPoint x="630" y="-2166.5" as="targetPoint" />
            <Array as="points">
              <mxPoint x="630" y="-2136.5" />
            </Array>
          </mxGeometry>
        </mxCell>
        <mxCell id="hOCo4uu3B2jNtMkzMyYe-12" value="&lt;font style=&quot;font-size: 16px;&quot;&gt;Search Button&lt;/font&gt;" style="text;html=1;align=center;verticalAlign=middle;whiteSpace=wrap;rounded=0;" vertex="1" parent="1">
          <mxGeometry x="550" y="-1965" width="160" height="30" as="geometry" />
        </mxCell>
        <mxCell id="hOCo4uu3B2jNtMkzMyYe-13" value="Search Box (Input Field)" style="text;html=1;align=center;verticalAlign=middle;whiteSpace=wrap;rounded=0;fontSize=16;" vertex="1" parent="1">
          <mxGeometry x="190" y="-1965" width="260" height="30" as="geometry" />
        </mxCell>
        <mxCell id="hOCo4uu3B2jNtMkzMyYe-14" value="" style="endArrow=none;html=1;rounded=0;entryX=0.391;entryY=0.05;entryDx=0;entryDy=0;entryPerimeter=0;exitX=0.391;exitY=0.933;exitDx=0;exitDy=0;exitPerimeter=0;" edge="1" parent="1">
          <mxGeometry width="50" height="50" relative="1" as="geometry">
            <mxPoint x="559.5" y="-1923.5" as="sourcePoint" />
            <mxPoint x="559.5" y="-1976.5" as="targetPoint" />
            <Array as="points">
              <mxPoint x="559.5" y="-1944.5" />
            </Array>
          </mxGeometry>
        </mxCell>
        <mxCell id="hOCo4uu3B2jNtMkzMyYe-15" value="" style="endArrow=none;html=1;rounded=0;" edge="1" parent="1">
          <mxGeometry width="50" height="50" relative="1" as="geometry">
            <mxPoint x="160" y="-1880" as="sourcePoint" />
            <mxPoint x="720" y="-1880" as="targetPoint" />
          </mxGeometry>
        </mxCell>
        <mxCell id="hOCo4uu3B2jNtMkzMyYe-32" value="&lt;font style=&quot;font-size: 23px;&quot;&gt;Enter a search term above to find inspiring images&lt;/font&gt;" style="text;html=1;align=center;verticalAlign=middle;whiteSpace=wrap;rounded=0;fontSize=18;" vertex="1" parent="1">
          <mxGeometry x="170" y="-1860" width="550" height="50" as="geometry" />
        </mxCell>
        <mxCell id="hOCo4uu3B2jNtMkzMyYe-33" value="" style="rounded=0;whiteSpace=wrap;html=1;align=left;" vertex="1" parent="1">
          <mxGeometry x="160" y="-1510" width="560" height="40" as="geometry" />
        </mxCell>
        <mxCell id="hOCo4uu3B2jNtMkzMyYe-34" value="Â© 2024 Living Loved" style="text;whiteSpace=wrap;html=1;fontSize=15;" vertex="1" parent="1">
          <mxGeometry x="200" y="-1510" width="250" height="40" as="geometry" />
        </mxCell>
        <mxCell id="hOCo4uu3B2jNtMkzMyYe-35" value="info@livingloved.org" style="text;whiteSpace=wrap;html=1;fontSize=15;align=right;" vertex="1" parent="1">
          <mxGeometry x="430" y="-1510" width="250" height="40" as="geometry" />
        </mxCell>
      </root>
    </mxGraphModel>
  </diagram>
</mxfile>
